PathFileType	4	(X/Y/Z)	C:\Data\4407\4407cd03.trc
DataRate	CameraRate	NumFrames	NumMarkers	Units	OrigDataRate	OrigDataStartFrame	OrigNumFrames
200.00	200.00	      8	29	mm	200.00	1501	      2000
Frame#	Time	Offset			RShoulder			RUpperArm			RElbow			RForearm			RWrist			LShoulder			LUpperArm			LElbow			LForearm			LWrist			LPSIS			RPSIS			RASIS			RThigh			RKnee			RShank			RAnkle			RHeel			RLat5			RToe			LASIS			LThigh			LKnee			LShank			LAnkle			LHeel			LLat5			LToe			
        X1	Y1	Z1	X2	Y2	Z2	X3	Y3	Z3	X4	Y4	Z4	X5	Y5	Z5	X6	Y6	Z6	X7	Y7	Z7	X8	Y8	Z8	X9	Y9	Z9	X10	Y10	Z10	X11	Y11	Z11	X12	Y12	Z12	X13	Y13	Z13	X14	Y14	Z14	X15	Y15	Z15	X16	Y16	Z16	X17	Y17	Z17	X18	Y18	Z18	X19	Y19	Z19	X20	Y20	Z20	X21	Y21	Z21	X22	Y22	Z22	X23	Y23	Z23	X24	Y24	Z24	X25	Y25	Z25	X26	Y26	Z26	X27	Y27	Z27	X28	Y28	Z28	X29	Y29	Z29	

1501	7.500	373.74298	-135.28120	1354.92834	481.23697	4.85826	1464.08228	531.82910	-136.78241	1328.95007	626.62299	-140.96399	1191.08093	559.53790	-73.29269	1047.35815	537.62659	63.61677	1045.60669	127.01995	-25.48974	1441.90417	107.32672	-149.53134	1241.01221	25.15218	-147.16299	1138.78674	35.67404	8.46513	1095.87927	32.87234	122.12429	1194.97156	323.65213	-162.87949	978.37854	373.42151	-154.90660	973.80139	441.75531	69.66860	956.66943	392.43320	138.60483	656.63702	468.33740	83.00488	455.04221	425.29855	36.15778	385.21744	405.42316	-313.56406	363.95303	347.45099	-343.40213	410.60300	453.58154	-359.09412	224.58606	350.04785	-343.08759	199.19295	191.49620	33.84214	961.58826	229.48512	118.98261	660.74371	198.43134	88.49922	483.82251	255.28732	101.63071	406.80832	264.05612	-84.69055	111.23568	310.41037	-152.29158	88.35771	247.56209	58.06449	54.47537	360.58902	54.06894	38.08665	
1502	7.505	371.94635	-136.13460	1353.38940	481.04422	3.48736	1462.00220	528.94543	-139.12839	1326.87671	625.18506	-146.36578	1190.29150	559.36816	-78.55950	1045.48926	539.85382	58.29565	1041.94604	126.59123	-24.04349	1439.34998	105.61983	-144.22121	1236.16040	23.44467	-138.80156	1133.69519	35.32971	17.68706	1095.01770	34.16509	129.12192	1196.56946	325.43118	-164.35693	977.27759	375.23569	-156.40868	973.54297	441.30994	68.19005	954.98682	391.28351	142.39693	658.33270	467.77060	92.09277	455.84100	425.16159	45.30789	385.97906	407.65814	-303.24661	361.10785	350.30240	-335.16785	407.74530	455.67758	-345.49835	220.85393	351.80249	-331.25482	196.22469	191.10719	31.43829	961.01349	230.16847	115.37827	658.91901	197.67944	84.27561	481.42834	253.78833	96.03197	404.49432	264.38431	-95.48688	111.67723	310.16763	-164.13081	89.25144	247.31880	46.15937	54.32539	360.54962	41.95520	37.88057	
1503	7.510	370.28101	-136.72600	1352.30688	480.91061	2.06650	1460.57361	525.66528	-141.74527	1325.75989	623.48901	-151.60417	1190.33923	558.91895	-84.04468	1044.73779	541.87616	52.75724	1039.49548	126.27722	-22.48174	1437.41748	104.39278	-138.90773	1232.01636	21.74067	-130.37383	1129.52856	35.56231	27.01670	1094.59961	35.69912	135.53468	1198.95105	326.94284	-165.83832	976.68750	376.68900	-157.81792	973.25500	440.51495	67.50572	953.63672	390.33591	146.19981	660.46710	467.00430	101.36465	457.22403	424.22543	56.02147	387.17529	409.35165	-292.64755	357.81851	352.73297	-326.59018	404.27097	457.84930	-331.69357	216.72681	353.43701	-319.03558	192.78079	190.92253	29.29797	960.08655	230.90761	111.79861	656.76001	196.97878	79.61145	479.15164	252.58694	90.06454	402.19543	263.47357	-107.83601	112.52894	310.57852	-174.93158	90.68950	247.34790	33.67154	53.90610	360.26376	29.85104	37.83768	
1504	7.515	369.08142	-137.46631	1351.48657	480.95410	0.54314	1459.86353	522.08099	-144.19020	1325.08765	621.82684	-157.03845	1191.05127	558.47400	-89.60696	1044.66272	543.55164	47.60715	1038.28687	126.03720	-21.14209	1436.09387	103.54692	-133.75269	1228.49255	20.55916	-121.98629	1126.07654	36.15813	36.43485	1094.84631	37.52480	141.95593	1201.90039	328.19403	-167.23627	976.48877	377.83450	-158.94565	972.99915	439.59052	67.03419	952.60425	389.22705	149.29460	663.20007	466.35449	110.34933	459.16910	423.38770	66.17342	388.71506	411.39407	-282.26706	354.61154	355.45801	-318.53378	400.37961	459.70013	-317.08600	212.48282	355.35181	-305.82910	189.05824	190.62912	27.49071	959.04346	231.41843	108.05550	654.68646	195.97232	74.19073	476.84195	251.03284	83.41958	400.19208	263.10513	-119.27796	112.94238	310.71365	-189.28159	90.74563	247.14653	21.34732	53.65125	360.34030	17.47424	37.81639	
1505	7.520	368.19754	-138.09666	1351.34900	480.83316	-1.04342	1459.72888	519.07001	-146.55951	1325.64868	620.10370	-162.40443	1192.38928	557.63104	-95.14079	1045.53540	545.01691	42.42710	1038.13745	126.15615	-19.92459	1435.19263	103.13704	-128.54230	1225.61694	19.48854	-113.80634	1123.69116	37.18623	45.54148	1096.89404	39.79842	148.51236	1205.77881	328.98145	-168.34984	976.57434	378.73813	-159.91696	973.04663	438.90369	66.23798	952.00970	388.24728	151.92747	666.42267	465.58679	119.36690	461.62131	422.40018	76.08242	390.94281	412.74747	-271.52899	350.77310	357.80643	-310.09036	395.85126	461.69266	-302.11243	208.01216	357.22763	-291.81348	184.98483	190.35028	25.99172	958.02112	230.43811	102.71998	651.31238	195.00633	67.98048	474.89026	249.82983	76.65450	398.29916	262.74457	-131.09389	113.75799	309.01202	-200.21317	92.38562	246.96724	9.27293	53.55713	360.07184	5.28229	37.71611	
1506	7.525	367.44293	-138.61511	1351.53662	480.72165	-2.80121	1460.21399	516.31219	-148.99400	1326.79749	618.29681	-167.69814	1194.56421	556.60852	-100.48487	1047.02490	546.18915	37.37649	1039.01050	126.13492	-18.66371	1434.97107	102.79582	-123.48890	1223.68176	18.65398	-105.80536	1122.08813	38.41085	54.35196	1098.32532	42.38164	154.47894	1210.21924	329.48392	-169.38702	977.04486	379.24890	-160.89645	973.31494	438.46579	65.30254	952.13196	387.26593	154.41359	669.72583	464.79642	127.95361	464.64783	421.46912	86.37600	393.64868	414.78049	-261.26166	346.79236	360.21613	-301.95969	391.00156	463.41031	-286.72409	203.05525	358.59564	-277.32004	180.58940	189.79102	24.42368	957.23315	230.31734	98.92194	649.28583	194.42563	60.82113	472.96378	248.58792	68.74355	396.23169	262.11545	-143.00117	114.48096	309.78799	-212.70219	93.19295	246.69365	-2.80346	53.27541	359.81406	-7.15116	37.69586	
1507	7.530	366.64560	-139.24818	1352.22241	480.78256	-4.27635	1461.30688	513.88147	-151.39378	1328.81873	616.48553	-172.86797	1197.19434	555.44592	-105.39997	1049.22986	547.06573	32.69437	1040.65210	126.19038	-17.51691	1435.37244	102.33652	-118.57349	1222.66870	18.24609	-97.92003	1121.33203	40.02905	62.89242	1100.99475	45.35451	159.86971	1215.24866	329.52557	-170.12830	977.93524	379.25635	-161.74007	974.28015	438.31476	64.11494	953.20233	386.30551	157.18561	673.65881	463.97021	136.75084	468.34943	420.38690	96.06682	396.78012	416.45541	-250.61234	342.58182	362.40897	-293.43707	385.47870	465.27777	-270.48807	198.16420	359.45364	-263.51044	175.80182	188.90170	23.92348	957.27441	229.23083	94.17119	646.68524	193.71481	53.15366	471.42307	247.98045	60.47478	394.47311	261.61636	-154.30579	115.44867	308.91113	-224.63737	94.77138	246.66063	-15.23466	52.94275	359.77332	-19.36397	37.66423	
1508	7.535	365.96332	-139.80060	1353.36438	480.71021	-6.13549	1462.92334	511.76636	-153.85036	1331.38489	614.50470	-178.04376	1200.32397	554.28577	-110.40288	1052.10449	547.83960	28.27617	1043.44153	126.32974	-16.43796	1436.35217	101.80542	-113.80587	1222.45740	18.09604	-90.37468	1121.33899	41.95713	71.01986	1104.56409	48.76114	165.15512	1221.17419	328.69113	-171.02518	979.16113	378.80222	-162.68404	975.76923	438.40121	63.34244	954.87286	385.64157	159.15239	677.94318	463.18893	145.26164	472.48041	419.16318	106.07441	399.75262	418.10675	-240.04370	338.14014	364.39548	-284.96298	379.51370	466.57321	-254.48328	192.95764	361.53290	-246.60892	171.02893	188.77512	23.17087	957.20557	227.75815	89.68987	644.42365	193.10965	44.72811	469.95047	246.85977	53.42938	392.86670	261.25177	-166.04163	116.47985	308.22430	-236.91687	96.13873	246.50357	-27.24239	52.92047	359.78427	-32.00490	37.97384	
